<svg width="24" height="32" viewBox="0 0 24 32" fill="none" xmlns="http://www.w3.org/2000/svg">
<path d="M0.399125 32V0.704H11.1511C13.4551 0.704 15.5351 1.024 17.3911 1.664C19.2791 2.272 20.7831 3.312 21.9031 4.784C23.0231 6.256 23.5831 8.256 23.5831 10.784C23.5831 13.216 23.0231 15.216 21.9031 16.784C20.7831 18.352 19.2951 19.52 17.4391 20.288C15.5831 21.024 13.5511 21.392 11.3431 21.392H7.45513V32H0.399125ZM7.45513 15.776H10.9111C14.7511 15.776 16.6711 14.112 16.6711 10.784C16.6711 9.152 16.1591 8 15.1351 7.328C14.1111 6.656 12.6391 6.32 10.7191 6.32H7.45513V15.776Z" fill="url(#paint0_radial_307_15849)"/>
<defs>
<radialGradient id="paint0_radial_307_15849" cx="0" cy="0" r="1" gradientUnits="userSpaceOnUse" gradientTransform="translate(-106 31.2167) scale(234 1426.24)">
<stop stop-color="#F472B6"/>
<stop offset="1" stop-color="#FBBF24"/>
</radialGradient>
</defs>
</svg>
